<svg xmlns="http://www.w3.org/2000/svg" xmlns:xlink="http://www.w3.org/1999/xlink" width="40" zoomAndPan="magnify" viewBox="0 0 30 30.000001" height="40" preserveAspectRatio="xMidYMid meet" version="1.0"><path fill="#fbf6ef" d="M 2.828125 2.347656 C 3 2.175781 3.195312 2.046875 3.417969 1.953125 C 3.640625 1.859375 3.871094 1.816406 4.113281 1.816406 C 4.351562 1.816406 4.585938 1.859375 4.808594 1.953125 C 5.03125 2.046875 5.226562 2.175781 5.394531 2.347656 L 15 11.949219 L 24.605469 2.347656 C 24.773438 2.171875 24.96875 2.035156 25.191406 1.941406 C 25.417969 1.84375 25.648438 1.792969 25.894531 1.792969 C 26.136719 1.789062 26.371094 1.835938 26.597656 1.925781 C 26.820312 2.019531 27.019531 2.152344 27.191406 2.324219 C 27.363281 2.496094 27.496094 2.695312 27.589844 2.917969 C 27.679688 3.144531 27.726562 3.378906 27.722656 3.621094 C 27.722656 3.867188 27.671875 4.097656 27.578125 4.324219 C 27.480469 4.546875 27.34375 4.742188 27.171875 4.910156 L 17.566406 14.515625 L 27.171875 24.121094 C 27.335938 24.292969 27.460938 24.488281 27.550781 24.707031 C 27.636719 24.929688 27.679688 25.160156 27.679688 25.398438 C 27.675781 25.632812 27.628906 25.863281 27.539062 26.082031 C 27.445312 26.300781 27.316406 26.496094 27.148438 26.664062 C 26.980469 26.832031 26.785156 26.960938 26.566406 27.054688 C 26.347656 27.144531 26.117188 27.191406 25.878906 27.195312 C 25.644531 27.199219 25.414062 27.15625 25.191406 27.066406 C 24.972656 26.976562 24.773438 26.851562 24.605469 26.6875 L 15 17.082031 L 5.394531 26.6875 C 5.226562 26.851562 5.027344 26.976562 4.808594 27.066406 C 4.585938 27.15625 4.355469 27.199219 4.121094 27.195312 C 3.882812 27.191406 3.652344 27.144531 3.433594 27.054688 C 3.214844 26.960938 3.019531 26.832031 2.851562 26.664062 C 2.683594 26.496094 2.554688 26.300781 2.460938 26.082031 C 2.371094 25.863281 2.324219 25.632812 2.320312 25.398438 C 2.320312 25.160156 2.363281 24.929688 2.449219 24.707031 C 2.539062 24.488281 2.664062 24.292969 2.828125 24.121094 L 12.433594 14.515625 L 2.828125 4.910156 C 2.660156 4.742188 2.527344 4.546875 2.4375 4.324219 C 2.34375 4.101562 2.296875 3.871094 2.296875 3.628906 C 2.296875 3.386719 2.34375 3.15625 2.4375 2.933594 C 2.527344 2.710938 2.660156 2.515625 2.828125 2.347656 Z M 2.828125 2.347656 " fill-opacity="1" fill-rule="nonzero"/></svg>