<svg xmlns="http://www.w3.org/2000/svg" xmlns:xlink="http://www.w3.org/1999/xlink" width="196" zoomAndPan="magnify" viewBox="0 0 147 147.000002" height="196" preserveAspectRatio="xMidYMid meet" version="1.0"><defs><clipPath id="39753a0a11"><path d="M 18 0 L 129 0 L 129 146.007812 L 18 146.007812 Z M 18 0 " clip-rule="nonzero"/></clipPath></defs><g clip-path="url(#39753a0a11)"><path fill="#4dbad4" d="M 125.9375 51.820312 L 114.941406 43.710938 L 115.347656 43.160156 C 117.175781 40.675781 116.648438 37.183594 114.167969 35.351562 L 103.171875 27.242188 L 104.058594 26.039062 C 105.890625 23.554688 105.359375 20.058594 102.878906 18.230469 L 87.386719 6.808594 C 86.195312 5.929688 84.703125 5.558594 83.238281 5.78125 C 81.773438 6.003906 80.457031 6.796875 79.578125 7.988281 L 78.6875 9.195312 L 67.695312 1.089844 C 65.210938 -0.738281 61.714844 -0.210938 59.886719 2.269531 L 46.589844 20.300781 L 42.746094 18.242188 C 41.363281 17.503906 39.730469 17.378906 38.253906 17.902344 C 36.773438 18.425781 35.582031 19.542969 34.96875 20.988281 L 19.234375 58.054688 C 18.492188 59.808594 18.691406 61.816406 19.765625 63.390625 L 48.601562 105.566406 L 44.023438 139.601562 C 43.613281 142.660156 45.757812 145.46875 48.816406 145.882812 C 49.066406 145.914062 49.316406 145.933594 49.566406 145.933594 C 52.320312 145.933594 54.714844 143.894531 55.09375 141.089844 L 59.957031 104.929688 C 60.140625 103.5625 59.8125 102.171875 59.03125 101.035156 L 30.710938 59.609375 L 42.863281 30.976562 L 74.191406 47.730469 L 70.238281 53.097656 L 59.238281 44.988281 C 56.757812 43.15625 53.261719 43.6875 51.429688 46.167969 C 49.597656 48.652344 50.128906 52.148438 52.609375 53.976562 L 68.105469 65.402344 L 83.589844 76.820312 C 83.59375 76.820312 83.59375 76.820312 83.59375 76.824219 L 99.085938 88.242188 C 100.085938 88.976562 101.246094 89.332031 102.394531 89.332031 C 103.320312 89.332031 104.234375 89.097656 105.054688 88.652344 L 104.300781 94.902344 L 93.585938 106.523438 C 92.5625 107.632812 92.03125 109.105469 92.113281 110.613281 L 93.742188 140.722656 C 93.902344 143.703125 96.367188 146.007812 99.3125 146.007812 C 99.414062 146.007812 99.515625 146.003906 99.617188 146 C 102.699219 145.832031 105.0625 143.199219 104.894531 140.121094 L 103.394531 112.363281 L 113.734375 101.144531 C 114.527344 100.285156 115.03125 99.195312 115.171875 98.03125 L 118.382812 71.480469 L 127.117188 59.628906 C 128.949219 57.148438 128.421875 53.652344 125.9375 51.820312 Z M 65.558594 13.394531 L 72.058594 18.183594 L 63.738281 29.472656 L 56.542969 25.625 Z M 73.691406 34.796875 L 85.253906 19.113281 L 91.753906 23.90625 L 80.890625 38.644531 Z M 87.488281 48.519531 L 88.316406 47.394531 L 96.546875 36.234375 L 103.042969 41.027344 L 102.664062 41.542969 C 102.652344 41.554688 102.644531 41.566406 102.636719 41.578125 L 85.726562 64.515625 L 79.226562 59.726562 Z M 101.21875 75.9375 L 94.71875 71.144531 L 108.3125 52.703125 L 114.8125 57.496094 L 108.460938 66.117188 Z M 101.21875 75.9375 " fill-opacity="1" fill-rule="nonzero"/></g></svg>