<svg xmlns="http://www.w3.org/2000/svg" xmlns:xlink="http://www.w3.org/1999/xlink" width="310" zoomAndPan="magnify" viewBox="0 0 232.5 232.499992" height="310" preserveAspectRatio="xMidYMid meet" version="1.0"><defs><clipPath id="cd097700df"><path d="M 0 34 L 232 34 L 232 199 L 0 199 Z M 0 34 " clip-rule="nonzero"/></clipPath></defs><g clip-path="url(#cd097700df)"><path fill="#211608" d="M 223.4375 48.484375 C 215.046875 38.507812 199.550781 34.4375 169.957031 34.4375 L 62.539062 34.4375 C 32.269531 34.4375 16.511719 38.769531 8.152344 49.390625 C 0 59.746094 0 75.007812 0 96.125 L 0 136.375 C 0 177.289062 9.671875 198.0625 62.539062 198.0625 L 169.957031 198.0625 C 195.621094 198.0625 209.839844 194.472656 219.039062 185.667969 C 228.476562 176.636719 232.5 161.898438 232.5 136.375 L 232.5 96.125 C 232.5 73.851562 231.871094 58.503906 223.4375 48.484375 Z M 149.265625 121.808594 L 100.488281 147.300781 C 99.398438 147.871094 98.203125 148.152344 97.011719 148.152344 C 95.664062 148.152344 94.320312 147.789062 93.128906 147.070312 C 90.882812 145.710938 89.511719 143.277344 89.511719 140.652344 L 89.511719 89.832031 C 89.511719 87.210938 90.878906 84.78125 93.121094 83.421875 C 95.359375 82.058594 98.144531 81.96875 100.46875 83.175781 L 149.25 108.503906 C 151.730469 109.792969 153.289062 112.355469 153.292969 115.148438 C 153.296875 117.945312 151.742188 120.511719 149.265625 121.808594 Z M 149.265625 121.808594 " fill-opacity="1" fill-rule="nonzero"/></g></svg>